<svg width="40" height="36" viewBox="0 0 40 36" fill="none" xmlns="http://www.w3.org/2000/svg">
<path fill-rule="evenodd" clip-rule="evenodd" d="M20 1.42808C9.57907 1.42808 1.12875 8.99384 1.12875 18.3277C1.12875 25.7947 6.53594 32.1291 14.0341 34.364C14.9769 34.5207 15.3231 33.9974 15.3231 33.551C15.3231 33.148 15.3056 31.8168 15.2975 30.4047C10.0475 31.427 8.93969 28.4107 8.93969 28.4107C8.08125 26.4574 6.84438 25.938 6.84438 25.938C5.13188 24.8891 6.97344 24.9109 6.97344 24.9109C8.86813 25.0299 9.86625 26.6524 9.86625 26.6524C11.5494 29.2354 14.2809 28.4888 15.3578 28.0573C15.5272 26.965 16.0163 26.2192 16.5559 25.7972C12.3644 25.3704 7.95782 23.9211 7.95782 17.4456C7.95782 15.6006 8.69532 14.093 9.9025 12.9092C9.70625 12.4839 9.06032 10.765 10.085 8.43722C10.085 8.43722 11.6694 7.98302 15.2756 10.1695C16.7813 9.79478 18.3959 9.60644 20 9.6C21.6031 9.60644 23.2188 9.79422 24.7272 10.1689C28.3291 7.98246 29.9116 8.43666 29.9116 8.43666C30.9388 10.7642 30.2928 12.4833 30.0969 12.9087C31.3069 14.0924 32.0391 15.6 32.0391 17.4451C32.0391 23.9359 27.6244 25.3648 23.4222 25.7835C24.0994 26.3079 24.7025 27.3367 24.7025 28.9131C24.7025 31.1743 24.6806 32.9941 24.6806 33.5507C24.6806 34.0005 25.0206 34.5274 25.9769 34.3615C33.4706 32.1243 38.8716 25.7919 38.8716 18.3277C38.8713 8.9944 30.4219 1.42836 20 1.42836V1.42808Z" fill="url(#paint0_linear_10_446)"/>
<path d="M8.27626 25.692C8.2347 25.7759 8.0872 25.8011 7.95282 25.7437C7.81532 25.6889 7.73876 25.5744 7.78313 25.4902C7.82376 25.4034 7.97157 25.3797 8.10813 25.4376C8.24563 25.4927 8.32376 25.6083 8.27595 25.6923L8.27626 25.692ZM9.04063 26.4557C8.95095 26.5304 8.77501 26.4957 8.65563 26.3773C8.53188 26.2598 8.50876 26.1022 8.60032 26.0264C8.69345 25.952 8.86407 25.9872 8.98782 26.1048C9.11095 26.224 9.13532 26.3801 9.04095 26.456L9.04063 26.4557ZM9.78501 27.4287C9.66938 27.5009 9.48001 27.4335 9.36313 27.2832C9.24751 27.1326 9.24751 26.9521 9.36626 26.8802C9.48282 26.808 9.66938 26.8732 9.78813 27.0221C9.90313 27.1746 9.90313 27.3551 9.78501 27.4284V27.4287ZM10.8041 28.3693C10.7009 28.4715 10.4803 28.444 10.3191 28.3049C10.1544 28.1687 10.1084 27.9747 10.2119 27.8728C10.3169 27.7704 10.5384 27.799 10.7006 27.9372C10.8653 28.0732 10.915 28.2674 10.8047 28.369L10.8041 28.3693ZM12.2103 28.9153C12.1644 29.0477 11.9525 29.1078 11.7384 29.0513C11.525 28.9934 11.3853 28.8386 11.4291 28.7048C11.4728 28.5714 11.6863 28.5089 11.9016 28.5691C12.115 28.6268 12.2547 28.7807 12.2103 28.9153ZM13.755 29.0163C13.7603 29.1557 13.5791 29.271 13.355 29.2738C13.1291 29.2785 12.9463 29.1655 12.9441 29.0284C12.9441 28.8876 13.1216 28.7737 13.3472 28.7698C13.5713 28.7661 13.7553 28.8781 13.7553 29.016L13.755 29.0163ZM15.1919 28.7975C15.2188 28.9332 15.0628 29.0728 14.84 29.1101C14.6213 29.1464 14.4181 29.0619 14.39 28.9273C14.3631 28.788 14.5219 28.6483 14.7406 28.6122C14.9638 28.5778 15.1638 28.6598 15.1919 28.7978V28.7975Z" fill="url(#paint1_linear_10_446)"/>
<defs>
<linearGradient id="paint0_linear_10_446" x1="20.0002" y1="1.42808" x2="20.0002" y2="34.3928" gradientUnits="userSpaceOnUse">
<stop stop-color="#FFD700"/>
<stop offset="1" stop-color="#FFD700" stop-opacity="0.49"/>
</linearGradient>
<linearGradient id="paint1_linear_10_446" x1="11.4827" y1="25.4059" x2="11.4827" y2="29.2739" gradientUnits="userSpaceOnUse">
<stop stop-color="#FFD700"/>
<stop offset="1" stop-color="#FFD700" stop-opacity="0.49"/>
</linearGradient>
</defs>
</svg>
