<svg width="70" height="70" viewBox="0 0 70 70" fill="none" xmlns="http://www.w3.org/2000/svg">
<path d="M0 0H70V70H0V0Z" fill="url(#paint0_linear_15_289)"/>
<path d="M47.0224 54.6875C47.6189 55.899 48.5455 56.9173 49.6955 57.625C50.8455 58.3327 52.1722 58.701 53.5224 58.6875C56.2474 58.6875 57.9899 57.325 57.9899 55.4375C57.9899 53.1875 56.1999 52.3825 53.1999 51.07L51.5549 50.365C46.8049 48.3425 43.6549 45.81 43.6549 40.455C43.6549 35.5225 47.4049 31.765 53.2874 31.765C55.1917 31.6275 57.0943 32.0537 58.7579 32.9904C60.4216 33.9271 61.7726 35.333 62.6424 37.0325L57.4999 40.32C57.165 39.4773 56.5818 38.7563 55.8277 38.2527C55.0736 37.7491 54.1842 37.4866 53.2774 37.5C52.8818 37.4604 52.4823 37.5036 52.1044 37.627C51.7264 37.7503 51.3783 37.951 51.0822 38.2163C50.786 38.4816 50.5484 38.8057 50.3845 39.1679C50.2206 39.5301 50.1339 39.9224 50.1299 40.32C50.1299 42.2925 51.3524 43.0925 54.1749 44.32L55.8199 45.025C61.4099 47.4225 64.5699 49.865 64.5699 55.3575C64.5699 61.28 59.9174 64.525 53.6699 64.525C51.2357 64.6801 48.8086 64.1274 46.6815 62.9337C44.5544 61.7399 42.8182 59.9561 41.6824 57.7975L47.0224 54.6875ZM23.7849 55.2575C24.8174 57.09 25.7574 58.64 28.0174 58.64C30.1774 58.64 31.5424 57.795 31.5424 54.5075V32.14H38.1199V54.595C38.1199 61.405 34.1199 64.505 28.2974 64.505C26.2393 64.6175 24.1953 64.1046 22.4341 63.0337C20.673 61.9628 19.2771 60.3841 18.4299 58.505L23.7849 55.2575Z" fill="#494E6B"/>
<defs>
<linearGradient id="paint0_linear_15_289" x1="35" y1="0" x2="35" y2="70" gradientUnits="userSpaceOnUse">
<stop stop-color="#FFD700"/>
<stop offset="1" stop-color="#FFD700" stop-opacity="0.55"/>
</linearGradient>
</defs>
</svg>
