<svg width="400" height="477" viewBox="0 0 400 477" fill="none" xmlns="http://www.w3.org/2000/svg">
<g clip-path="url(#clip0_13_1408)">
<path d="M154.924 391.247C146.964 383.039 135.431 378.331 123.279 378.331L122.811 378.332C114.807 378.336 106.946 376.213 100.032 372.181L99.3122 371.762L99.8917 371.165C103.029 367.919 105.649 364.21 107.659 360.168C106.231 361.499 104.528 362.5 102.671 363.1C100.813 363.7 98.8469 363.885 96.9104 363.64C94.8658 363.397 92.903 362.693 91.1692 361.583C89.4354 360.472 87.9755 358.983 86.8992 357.228C82.6522 350.337 77.5897 340.56 77.5897 333.111C77.5963 326.815 78.9146 320.59 81.4604 314.831C84.0063 309.073 87.724 303.908 92.3765 299.666C95.3219 297.01 97.6745 293.764 99.281 290.138C100.887 286.512 101.712 282.588 101.7 278.622L101.698 278.057C101.697 272.836 102.335 267.634 103.598 262.568L103.726 262.056L104.252 262.074C107.647 262.19 111.043 261.905 114.371 261.227C111.249 260.844 108.195 260.032 105.296 258.813L104.73 258.584L104.922 258.004C118.17 249.801 148.073 254.049 165.431 214.337C179.505 182.136 229.163 242.922 229.163 278.057C229.163 281.643 225.615 286.38 228.271 288.75C256.984 314.366 237.173 330.814 230.926 347.366C229.444 351.293 232.658 355.604 232.658 359.853C232.658 360.574 232.639 361.318 232.603 362.064L232.548 363.212L231.59 362.575C229.697 361.335 227.941 359.895 226.354 358.28C228 362.069 228.776 366.18 228.625 370.308C228.473 374.437 227.398 378.479 225.477 382.137C222.468 387.817 219.557 391.882 216.825 394.221C208.073 401.711 196.79 405.574 185.284 405.022C173.778 404.469 162.917 399.541 154.924 391.247Z" fill="#E6E6E6"/>
<path d="M202.994 476.688C203.19 476.688 203.379 476.617 203.527 476.488C203.675 476.36 203.771 476.183 203.799 475.989C203.833 475.746 207.217 451.338 204.178 418.899C201.371 388.941 192.357 345.791 165.353 310.352C165.289 310.267 165.208 310.196 165.116 310.142C165.023 310.088 164.921 310.053 164.815 310.038C164.709 310.024 164.602 310.031 164.498 310.058C164.395 310.085 164.298 310.133 164.213 310.197C164.128 310.262 164.057 310.343 164.003 310.436C163.949 310.528 163.914 310.63 163.9 310.736C163.886 310.842 163.892 310.95 163.92 311.053C163.947 311.156 163.995 311.253 164.06 311.338C190.83 346.471 199.771 389.304 202.559 419.051C205.58 451.301 202.223 475.519 202.188 475.76C202.172 475.875 202.181 475.993 202.214 476.104C202.247 476.216 202.303 476.32 202.38 476.408C202.456 476.496 202.551 476.566 202.657 476.614C202.763 476.663 202.878 476.688 202.994 476.688Z" fill="#3F3D56"/>
<path d="M180.958 360.34C181.13 360.34 181.297 360.286 181.436 360.185C181.576 360.084 181.679 359.942 181.732 359.779C181.785 359.615 181.785 359.439 181.732 359.276C181.679 359.112 181.576 358.97 181.437 358.869C173.743 353.661 165.431 349.43 156.692 346.273C143.04 341.274 122.28 336.743 100.907 343.545C100.805 343.577 100.711 343.629 100.629 343.698C100.547 343.767 100.48 343.851 100.43 343.946C100.381 344.041 100.351 344.145 100.342 344.251C100.333 344.358 100.345 344.465 100.377 344.567C100.41 344.669 100.462 344.764 100.531 344.845C100.6 344.927 100.684 344.994 100.779 345.043C100.875 345.092 100.978 345.122 101.085 345.131C101.191 345.14 101.299 345.128 101.401 345.095C122.335 338.433 142.719 342.889 156.133 347.8C164.731 350.903 172.91 355.063 180.481 360.185C180.619 360.286 180.787 360.34 180.958 360.34Z" fill="#3F3D56"/>
<path d="M218.179 267.636C218.192 267.465 218.15 267.294 218.059 267.148C217.969 267.002 217.834 266.888 217.675 266.823C217.516 266.759 217.34 266.746 217.174 266.787C217.007 266.828 216.857 266.921 216.747 267.052C210.998 274.352 206.179 282.338 202.401 290.826C196.433 304.083 190.418 324.463 195.663 346.269C195.688 346.373 195.733 346.471 195.796 346.558C195.859 346.644 195.938 346.718 196.029 346.774C196.12 346.829 196.221 346.867 196.327 346.883C196.433 346.9 196.54 346.896 196.644 346.871C196.748 346.846 196.846 346.801 196.933 346.738C197.019 346.675 197.092 346.596 197.148 346.504C197.204 346.413 197.241 346.312 197.257 346.206C197.274 346.101 197.27 345.993 197.245 345.889C192.107 324.529 198.02 304.519 203.884 291.494C207.598 283.142 212.336 275.284 217.99 268.101C218.101 267.97 218.167 267.807 218.179 267.636Z" fill="#3F3D56"/>
<path d="M375.044 475.827H310.303L310.025 475.322C309.197 473.821 308.398 472.23 307.651 470.595C300.983 456.319 298.164 439.99 295.677 425.584L293.804 414.725C293.577 413.41 293.748 412.057 294.295 410.839C294.841 409.622 295.739 408.595 296.872 407.891C298.006 407.186 299.324 406.836 300.657 406.885C301.991 406.934 303.28 407.38 304.358 408.166C314.197 415.325 324.04 422.477 333.886 429.623C337.614 432.335 341.872 435.475 345.95 438.868C346.344 436.957 346.755 435.041 347.167 433.151C347.45 431.846 348.117 430.655 349.081 429.732C350.046 428.808 351.264 428.193 352.579 427.965C353.895 427.738 355.249 427.908 356.468 428.455C357.686 429.001 358.714 429.898 359.419 431.032L366.994 443.202C372.518 452.089 377.395 460.847 376.401 470.292C376.406 470.407 376.397 470.522 376.375 470.635C376.177 472.187 375.808 473.712 375.276 475.183L375.044 475.827Z" fill="#F0F0F0"/>
<path d="M344.882 221.307L332.387 175.061C331.852 173.104 330.569 171.435 328.814 170.415C327.059 169.395 324.974 169.106 323.008 169.61C321.991 169.871 321.038 170.336 320.206 170.978C319.375 171.619 318.683 172.423 318.172 173.34C317.662 174.257 317.343 175.269 317.237 176.314C317.13 177.358 317.237 178.414 317.551 179.415L332.003 227.055L339.564 256.373C338.462 257.214 337.647 258.374 337.227 259.694C336.808 261.015 336.806 262.432 337.22 263.754C337.634 265.076 338.446 266.239 339.544 267.084C340.642 267.929 341.974 268.415 343.358 268.477C344.742 268.538 346.111 268.173 347.28 267.429C348.449 266.685 349.361 265.6 349.892 264.32C350.422 263.04 350.546 261.628 350.246 260.275C349.946 258.922 349.237 257.695 348.215 256.759L344.882 221.307Z" fill="#FFB8B8"/>
<path d="M239.744 211.347L277.707 182.131C279.311 180.888 280.363 179.064 280.635 177.053C280.907 175.042 280.377 173.004 279.16 171.38C278.531 170.54 277.737 169.837 276.826 169.314C275.916 168.79 274.909 168.458 273.866 168.337C272.823 168.215 271.766 168.308 270.76 168.608C269.754 168.909 268.82 169.411 268.014 170.084L229.511 201.641L205.306 219.831C204.108 219.134 202.725 218.823 201.344 218.94C199.964 219.058 198.653 219.597 197.589 220.485C196.526 221.373 195.762 222.567 195.4 223.905C195.039 225.242 195.099 226.659 195.57 227.961C196.042 229.264 196.903 230.39 198.037 231.186C199.171 231.982 200.523 232.41 201.908 232.411C203.294 232.412 204.646 231.987 205.782 231.193C206.917 230.399 207.78 229.275 208.255 227.973L239.744 211.347Z" fill="#FFB8B8"/>
<path d="M270.685 218.063L269.012 255.436L321.553 244.016C317.081 228.999 314.04 226.438 317.401 215.987L270.685 218.063Z" fill="#FFB8B8"/>
<path d="M302.992 149.549H285.485L277.966 162.414L274.384 162.216C272.632 162.12 270.878 162.381 269.23 162.985C267.583 163.589 266.076 164.523 264.801 165.729C263.526 166.935 262.511 168.388 261.817 170C261.123 171.612 260.766 173.348 260.766 175.103L265.18 181.945C265.18 181.945 257.286 195.702 268.657 202.471C268.657 202.471 266.629 215.223 268.657 215.086C270.685 214.949 275.357 212.353 270.685 214.949C266.013 217.544 266.362 217.893 266.966 218.497L267.571 219.101L316.693 227.349C316.693 227.349 318.129 217.827 318.284 216.128C318.439 214.43 317.401 218.582 318.439 214.43C319.477 210.277 321.034 211.834 319.477 210.277C317.92 208.72 329.567 189.428 324.782 181.945L332.454 174.462C332.454 167.283 320.925 161.464 313.747 161.464H312.827L302.992 149.549Z" fill="#E6E6E6"/>
<path d="M260.81 461.419H253.724L250.353 434.087L260.811 434.088L260.81 461.419Z" fill="#A0616A"/>
<path d="M239.423 471.874C239.426 472.668 239.743 473.428 240.303 473.99C240.864 474.552 241.624 474.87 242.418 474.875H255.757L256.17 474.018L258.057 470.125L258.788 474.018L258.949 474.875H263.981L263.909 474.012L262.567 457.924L260.812 457.816L253.229 457.367L251.366 457.253V462.057C249.953 463.56 238.86 469.244 239.423 471.874Z" fill="#2F2E41"/>
<path d="M366.121 442.858L360.161 446.692L342.539 425.53L351.335 419.872L366.121 442.858Z" fill="#A0616A"/>
<path d="M353.791 463.222C354.223 463.888 354.9 464.356 355.676 464.525C356.452 464.695 357.263 464.551 357.933 464.126L369.151 456.909L369.035 455.965L368.516 451.67L371.237 454.549L371.836 455.182L376.067 452.46L375.54 451.773L365.708 438.969L364.173 439.827L357.553 443.552L355.925 444.464L358.524 448.504C358.148 450.533 351.894 461.316 353.791 463.222Z" fill="#2F2E41"/>
<path d="M399.176 476.326L179.76 476.54C179.541 476.539 179.331 476.451 179.177 476.296C179.022 476.141 178.936 475.93 178.936 475.711C178.936 475.492 179.022 475.282 179.177 475.127C179.331 474.972 179.541 474.884 179.76 474.883L399.176 474.669C399.395 474.67 399.605 474.758 399.759 474.913C399.913 475.069 400 475.279 400 475.498C400 475.717 399.913 475.927 399.759 476.082C399.605 476.237 399.395 476.325 399.176 476.326Z" fill="#CACACA"/>
<path d="M320.73 239.794C320.73 239.794 287.144 257.56 269.38 245.439C269.38 245.439 265.494 264.26 263.937 265.817C262.38 267.374 259.899 268.053 261.659 269.79C263.418 271.527 264.398 273.873 261.053 276.852C257.708 279.832 254.373 278.886 257.598 281.954C260.823 285.022 247.846 360.287 247.846 360.287C247.846 360.287 249.923 430.279 247.846 432.396C245.77 434.513 242.995 434.987 245.68 437.605C248.365 440.223 248.365 438.192 248.365 441.803V445.414L249.594 449.002H266.447C266.447 449.002 270.515 444.277 266.447 440.174C262.38 436.07 267.685 434.947 268.926 431.097C270.166 427.246 272.242 431.399 270.166 427.246C268.09 423.094 267.093 423.884 267.072 421.153C267.052 418.422 297.677 311.495 297.677 311.495L301.386 370.678L346.002 435.493L359.135 425.643C359.135 425.643 349.573 412.184 351.809 410.333C354.045 408.483 345.219 406.162 348.002 404.075C350.785 401.987 344.086 399.884 346.611 397.117C349.136 394.35 343.132 387.376 339.653 387.376C336.174 387.376 331.292 375.751 331.292 375.751L338.58 283.915L320.73 239.794Z" fill="#2F2E41"/>
<path d="M285.133 111.772C284.895 112.084 283.001 111.916 280.724 111.584C276.222 110.926 275.608 111.707 272.242 114.769C267.367 119.204 270.139 146.255 267.743 152.116L266.969 152.686C268.504 152.393 270.012 151.971 271.476 151.425C272.304 148.814 273.133 146.196 273.968 143.588C274.757 145.617 275.252 147.748 275.44 149.917C276.599 149.46 277.751 148.343 282.594 146.844C285.033 145.19 302.675 143.526 304.943 142.799C310.7 123.214 301.423 115.293 285.133 111.772Z" fill="#2F2E41"/>
<path d="M291.089 141.973C300.4 141.973 307.949 134.424 307.949 125.113C307.949 115.802 300.4 108.254 291.089 108.254C281.778 108.254 274.23 115.802 274.23 125.113C274.23 134.424 281.778 141.973 291.089 141.973Z" fill="#FFB8B8"/>
<path d="M301.704 110.286C300.753 110.146 299.839 109.825 299.009 109.342C298.598 109.093 298.265 108.734 298.048 108.305C297.831 107.877 297.739 107.396 297.782 106.917C297.99 105.719 299.344 105.004 300.558 105.077C301.766 105.251 302.914 105.716 303.904 106.431C303.795 105.273 303.3 104.186 302.499 103.343C301.698 102.5 300.637 101.951 299.486 101.784C301.083 101.698 302.742 101.622 304.218 102.236C305.694 102.85 306.924 104.37 306.657 105.946C309.139 105.626 311.586 107.355 312.61 109.638C313.635 111.92 313.432 114.601 312.613 116.965C312.532 117.327 312.375 117.667 312.151 117.963C311.927 118.259 311.642 118.503 311.316 118.679C310.481 118.996 309.582 118.465 308.859 117.941C305.079 115.204 301.639 112.027 298.611 108.476" fill="#2F2E41"/>
<path d="M309.054 143.037C308.34 143.374 308.712 144.626 308.156 145.186C307.915 145.424 307.625 145.605 307.305 145.716C307.222 144.671 306.978 143.645 306.584 142.674C306.511 142.498 306.392 142.3 306.205 142.316C305.987 142.342 305.93 142.627 305.924 142.84C305.88 143.896 305.647 144.935 305.234 145.908C305.229 145.918 305.224 145.934 305.219 145.944C305.058 145.939 304.891 145.934 304.736 145.929C303.532 145.882 300.864 142.788 300.272 143.837C302.358 140.136 304.902 134.572 305.291 130.341C305.426 129.455 305.36 128.551 305.099 127.694C304.963 127.268 304.707 126.889 304.362 126.604C304.017 126.319 303.597 126.139 303.153 126.085C302.933 126.075 302.715 126.113 302.512 126.198C302.31 126.282 302.128 126.41 301.981 126.573C301.834 126.736 301.724 126.929 301.66 127.139C301.596 127.349 301.579 127.57 301.611 127.787L301.31 127.746C298.517 125.472 300.926 121.522 297.677 119.96C296.576 119.43 289.839 121.2 288.65 120.889C288.625 119.637 288.369 118.4 287.897 117.24C287.825 117.063 287.705 116.866 287.518 116.882C287.3 116.908 287.243 117.193 287.238 117.406C287.194 118.462 286.96 119.501 286.548 120.474C284.901 120.24 283.225 120.328 281.611 120.733C280.189 121.107 278.84 121.751 277.412 122.093C276.707 122.309 275.964 122.38 275.231 122.299C274.497 122.219 273.788 121.99 273.145 121.626C271.334 120.411 271.017 117.723 271.92 115.74C272.574 114.467 273.458 113.327 274.526 112.376C275.341 111.587 276.187 110.829 277.033 110.072C277.791 109.392 278.549 108.712 279.307 108.032C280.261 107.134 281.277 106.305 282.348 105.551C284.059 104.429 285.98 103.67 287.995 103.318C290.01 102.966 292.075 103.03 294.064 103.505C296.451 104.076 299.644 103.272 301.829 104.388C302.971 104.974 305.499 107.222 306.501 108.021C309.065 110.061 307.33 108.399 310.134 109.579C316.821 112.391 313.864 140.773 309.054 143.037Z" fill="#2F2E41"/>
<path d="M122.383 266.092C180.128 266.092 226.938 219.281 226.938 161.537C226.938 103.793 180.128 56.9819 122.383 56.9819C64.6393 56.9819 17.8285 103.793 17.8285 161.537C17.8285 219.281 64.6393 266.092 122.383 266.092Z" fill="white"/>
<path d="M122.383 267.135C64.1563 267.135 16.7849 219.764 16.7849 161.537C16.7849 103.309 64.1563 55.938 122.383 55.938C180.611 55.938 227.982 103.309 227.982 161.537C227.982 219.764 180.611 267.135 122.383 267.135ZM122.383 58.0253C65.3073 58.0253 18.8722 104.46 18.8722 161.537C18.8722 218.613 65.3073 265.048 122.383 265.048C179.46 265.048 225.895 218.613 225.895 161.537C225.895 104.46 179.46 58.0253 122.383 58.0253Z" fill="#6C63FF"/>
<path d="M108.12 215.953C106.314 215.953 104.534 215.532 102.919 214.725C101.304 213.917 99.8996 212.744 98.8167 211.3L70.2925 173.267C69.3761 172.045 68.7095 170.655 68.3305 169.175C67.9515 167.696 67.8676 166.156 68.0836 164.644C68.2997 163.132 68.8114 161.677 69.5896 160.363C70.3678 159.049 71.3972 157.901 72.619 156.985C73.8409 156.068 75.2312 155.402 76.7108 155.023C78.1903 154.644 79.7299 154.56 81.2419 154.776C82.7538 154.992 84.2083 155.504 85.5225 156.282C86.8366 157.06 87.9847 158.089 88.901 159.311L107.562 184.191L155.492 112.298C157.204 109.733 159.864 107.954 162.888 107.35C165.912 106.746 169.051 107.368 171.617 109.078C174.182 110.788 175.964 113.448 176.569 116.471C177.175 119.494 176.555 122.634 174.846 125.201L117.798 210.773C116.766 212.321 115.378 213.599 113.75 214.499C112.123 215.4 110.303 215.897 108.444 215.949C108.336 215.951 108.228 215.953 108.12 215.953Z" fill="#98878F"/>
<path d="M230.106 63.5145C230.396 61.5155 228.303 59.5561 225.429 59.1381C222.556 58.72 219.991 60.0015 219.7 62.0004C219.409 63.9994 221.503 65.9588 224.376 66.3769C227.25 66.795 229.815 65.5134 230.106 63.5145Z" fill="#E6E6E6"/>
<path d="M264.317 60.1761C264.608 58.1772 262.514 56.2178 259.641 55.7997C256.767 55.3816 254.202 56.6632 253.911 58.6621C253.621 60.661 255.714 62.6204 258.588 63.0385C261.461 63.4566 264.026 62.1751 264.317 60.1761Z" fill="#3F3D56"/>
<path d="M220.737 35.8172C221.028 33.8182 218.934 31.8589 216.061 31.4408C213.187 31.0227 210.622 32.3042 210.331 34.3032C210.04 36.3021 212.134 38.2615 215.007 38.6796C217.881 39.0977 220.446 37.8161 220.737 35.8172Z" fill="#FF6584"/>
<path d="M205.871 24.472C205.885 22.6368 204.862 21.1414 203.585 21.1317C202.308 21.122 201.262 22.6019 201.248 24.437C201.235 26.2721 202.258 27.7676 203.535 27.7772C204.811 27.7869 205.857 26.3071 205.871 24.472Z" fill="#E6E6E6"/>
<path d="M200.83 3.34036C200.844 1.50525 199.82 0.00976439 198.544 0.000111023C197.267 -0.00954234 196.221 1.47029 196.207 3.3054C196.193 5.14052 197.217 6.636 198.493 6.64565C199.77 6.65531 200.816 5.17547 200.83 3.34036Z" fill="#3F3D56"/>
<path d="M240.033 40.5305C240.047 38.6954 239.023 37.1999 237.747 37.1903C236.47 37.1806 235.424 38.6605 235.41 40.4956C235.396 42.3307 236.42 43.8262 237.697 43.8358C238.973 43.8455 240.019 42.3657 240.033 40.5305Z" fill="#E6E6E6"/>
<path d="M223.5 48.785C223.514 46.9499 222.491 45.4544 221.214 45.4447C219.937 45.4351 218.891 46.9149 218.877 48.75C218.864 50.5851 219.887 52.0806 221.164 52.0902C222.44 52.0999 223.487 50.6201 223.5 48.785Z" fill="#FF6584"/>
<path d="M246.515 64.0418C246.528 62.2067 245.505 60.7112 244.228 60.7016C242.952 60.6919 241.906 62.1717 241.892 64.0069C241.878 65.842 242.901 67.3374 244.178 67.3471C245.455 67.3567 246.501 65.8769 246.515 64.0418Z" fill="#3F3D56"/>
<path d="M33.8987 311.208C34.1896 309.209 32.0959 307.25 29.2224 306.832C26.3489 306.414 23.7837 307.695 23.4929 309.694C23.2021 311.693 25.2957 313.652 28.1692 314.07C31.0427 314.489 33.6079 313.207 33.8987 311.208Z" fill="#E6E6E6"/>
<path d="M68.1107 307.87C68.4016 305.871 66.3079 303.912 63.4344 303.494C60.561 303.075 57.9958 304.357 57.7049 306.356C57.4141 308.355 59.5077 310.314 62.3812 310.732C65.2547 311.15 67.8199 309.869 68.1107 307.87Z" fill="#3F3D56"/>
<path d="M24.5305 283.511C24.8213 281.512 22.7277 279.552 19.8542 279.134C16.9807 278.716 14.4155 279.998 14.1247 281.997C13.8338 283.996 15.9275 285.955 18.801 286.373C21.6745 286.791 24.2396 285.51 24.5305 283.511Z" fill="#FF6584"/>
<path d="M9.66447 272.166C9.67835 270.331 8.65471 268.835 7.37812 268.826C6.10152 268.816 5.05536 270.296 5.04148 272.131C5.02761 273.966 6.05126 275.461 7.32786 275.471C8.60446 275.481 9.6506 274.001 9.66447 272.166Z" fill="#E6E6E6"/>
<path d="M4.62313 251.034C4.63701 249.199 3.61337 247.703 2.33677 247.694C1.06017 247.684 0.0140394 249.164 0.000162699 250.999C-0.013714 252.834 1.00992 254.33 2.28652 254.339C3.56312 254.349 4.60926 252.869 4.62313 251.034Z" fill="#3F3D56"/>
<path d="M43.8263 288.224C43.8402 286.389 42.8166 284.894 41.54 284.884C40.2634 284.874 39.2173 286.354 39.2034 288.189C39.1895 290.025 40.2131 291.52 41.4897 291.53C42.7663 291.539 43.8125 290.06 43.8263 288.224Z" fill="#E6E6E6"/>
<path d="M27.2936 296.479C27.3075 294.644 26.2839 293.148 25.0073 293.139C23.7307 293.129 22.6845 294.609 22.6706 296.444C22.6567 298.279 23.6804 299.774 24.957 299.784C26.2336 299.794 27.2798 298.314 27.2936 296.479Z" fill="#FF6584"/>
<path d="M50.3078 311.736C50.3216 309.901 49.298 308.405 48.0214 308.395C46.7448 308.386 45.6987 309.866 45.6848 311.701C45.6709 313.536 46.6945 315.031 47.9711 315.041C49.2477 315.051 50.2939 313.571 50.3078 311.736Z" fill="#3F3D56"/>
</g>
<defs>
<clipPath id="clip0_13_1408">
<rect width="400" height="476.688" fill="white"/>
</clipPath>
</defs>
</svg>
