<svg width="32" height="33" viewBox="0 0 32 33" fill="none" xmlns="http://www.w3.org/2000/svg">
<path d="M29 0.773438H3C2.41008 0.767247 1.84187 1.00265 1.42005 1.42798C0.998227 1.85332 0.757253 2.43385 0.75 3.04219V29.963C0.758564 30.5704 1.00012 31.1496 1.42179 31.5738C1.84347 31.9981 2.41093 32.2328 3 32.2266H29C29.59 32.2314 30.1578 31.9952 30.5794 31.5696C31.001 31.144 31.2421 30.5636 31.25 29.9552V3.03445C31.2395 2.4279 30.9972 1.85013 30.5759 1.42675C30.1546 1.00337 29.5883 0.768586 29 0.773438Z" fill="url(#paint0_linear_10_450)"/>
<path d="M5.265 12.5632H9.7925V27.5859H5.265V12.5632ZM7.53 5.08664C8.04928 5.08664 8.5569 5.24547 8.98863 5.54304C9.42036 5.8406 9.75682 6.26354 9.95542 6.75833C10.154 7.25313 10.2059 7.79755 10.1044 8.32273C10.0029 8.84792 9.75263 9.33026 9.38527 9.70874C9.01791 10.0872 8.54994 10.3448 8.04058 10.449C7.53121 10.5532 7.00333 10.4992 6.52372 10.2939C6.04411 10.0886 5.63431 9.74125 5.34618 9.29574C5.05804 8.85023 4.90451 8.3266 4.905 7.79109C4.90566 7.07359 5.18252 6.38571 5.67473 5.8786C6.16694 5.37149 6.83424 5.08664 7.53 5.08664ZM12.6325 12.5632H16.9725V14.6257H17.0325C17.6375 13.4449 19.1125 12.1997 21.315 12.1997C25.9 12.1894 26.75 15.3012 26.75 19.3359V27.5859H22.2225V20.277C22.2225 18.5367 22.1925 16.2963 19.87 16.2963C17.5475 16.2963 17.1525 18.1938 17.1525 20.1635V27.5859H12.6325V12.5632Z" fill="white"/>
<defs>
<linearGradient id="paint0_linear_10_450" x1="16" y1="0.773319" x2="16" y2="32.2267" gradientUnits="userSpaceOnUse">
<stop stop-color="#FFD700"/>
<stop offset="0.9999" stop-color="#FFD700" stop-opacity="0.51"/>
<stop offset="1" stop-color="#FFD700" stop-opacity="0"/>
</linearGradient>
</defs>
</svg>
