<svg width="70" height="70" viewBox="0 0 70 70" fill="none" xmlns="http://www.w3.org/2000/svg">
<path fill-rule="evenodd" clip-rule="evenodd" d="M16.7291 11.4497C16.0639 11.4476 15.4012 11.532 14.7578 11.7009V11.7887H14.8533C15.3141 12.4844 15.8279 13.1434 16.3901 13.76C16.7768 14.5284 17.1133 15.2943 17.4975 16.0627C17.5452 16.015 17.5929 15.9647 17.5929 15.9647C17.9496 15.6816 18.2288 15.3127 18.4044 14.8925C18.5801 14.4722 18.6464 14.0144 18.5973 13.5616C18.387 13.2373 18.1942 12.902 18.0198 12.5572C17.731 12.0775 17.1057 11.8365 16.7215 11.4523" fill="url(#paint0_linear_15_239)"/>
<path fill-rule="evenodd" clip-rule="evenodd" d="M64.4278 53.3552C61.2602 53.1327 58.0818 53.5917 55.1065 54.7012C54.3858 54.9899 53.2357 54.9899 53.1353 55.9015C53.522 56.2857 53.5672 56.9059 53.9062 57.4408C54.5639 58.5544 55.4092 59.5458 56.4048 60.3713C57.4092 61.1397 58.4137 61.9056 59.4809 62.5786C61.3517 63.7362 63.4686 64.4067 65.2916 65.5593C66.3513 66.2322 67.406 67.0961 68.4657 67.8193C68.993 68.2035 69.327 68.8237 70 69.0748V68.9292C69.8023 68.3955 69.5577 67.8804 69.2693 67.3899C68.7896 66.9128 68.3075 66.4783 67.8254 65.9987C66.4168 64.1362 64.7316 62.5001 62.8282 61.1472C61.2889 60.0875 57.924 58.6361 57.3038 56.8783L57.2058 56.7804C58.3322 56.6208 59.4422 56.362 60.523 56.0069C62.1553 55.575 63.6443 55.673 65.3243 55.2536C66.0952 55.0603 67.4889 54.5806 67.4889 54.5806V53.8273C66.6301 52.9735 66.0148 51.831 65.1108 51.0249C62.6514 48.878 60.0305 46.9236 57.2711 45.179C55.7971 44.2273 53.8962 43.6146 52.3267 42.8035C51.7592 42.5172 50.82 42.3766 50.476 41.8995C49.6955 40.7543 49.0421 39.5275 48.5274 38.2408C47.1513 35.6292 45.8179 32.7339 44.6326 29.9716C43.9311 28.1205 43.122 26.3119 42.2094 24.5551C37.8057 17.0681 31.4494 10.9192 23.8205 6.76635C21.8955 5.8346 19.8489 5.17862 17.741 4.81771C16.5508 4.76749 15.3655 4.67458 14.1777 4.62938C13.411 4.12707 12.6817 3.56981 11.9956 2.96199C9.27854 1.24188 2.29762 -2.4545 0.29877 2.43968C-0.981903 5.53087 2.2022 8.56933 3.29454 10.1388C4.2156 11.2454 5.02715 12.4387 5.71777 13.7021C6.05175 14.5106 6.14717 15.3669 6.47111 16.2132C7.16816 18.3856 7.99583 20.5139 8.94959 22.5864C9.4597 23.6108 10.0473 24.5946 10.7074 25.5295C11.0916 26.0543 11.7545 26.2828 11.8976 27.1491C11.371 28.2811 11.0026 29.4801 10.8028 30.7124C9.97273 33.3338 9.66724 36.093 9.90379 38.8324C10.1403 41.5719 10.9143 44.2379 12.1814 46.6781C12.9347 47.8659 14.7478 50.48 17.171 49.4805C19.308 48.6268 18.8334 45.9173 19.4511 43.5442C19.5917 42.9692 19.4988 42.5925 19.7826 42.2134V42.6754C19.7826 42.6754 20.9954 45.3397 21.5981 46.6932C23.2371 49.1767 25.2731 51.3739 27.6248 53.197C28.555 54.0092 29.3044 55.0075 29.8246 56.1275V56.9888H30.8968C30.8745 56.6004 30.7668 56.2218 30.5815 55.8798C30.3961 55.5378 30.1377 55.2408 29.8246 55.01C28.9453 54.105 28.14 53.1309 27.4164 52.0971C25.4508 49.2978 23.7174 46.3424 22.2334 43.2605C21.4801 41.7538 20.8448 40.1015 20.2421 38.5973C19.9659 38.0173 19.9659 37.1409 19.5013 36.8396C18.6435 37.8545 17.8992 38.9601 17.2815 40.1367C16.5317 42.5148 16.0952 44.9806 15.9832 47.4716C15.7999 47.5219 15.8903 47.4716 15.7999 47.5671C14.3209 47.1778 13.8111 45.5783 13.2537 44.2223C11.8135 40.0401 11.6683 35.5208 12.8368 31.2548C13.1582 30.2378 14.5519 27.0336 13.9944 26.0618C13.7157 25.1352 12.7891 24.6054 12.2818 23.8746C11.6343 22.8916 11.0771 21.8519 10.617 20.7684C9.51459 18.0664 8.95712 15.0531 7.7568 12.331C7.09236 11.0218 6.3187 9.77106 5.44406 8.59193C4.47656 7.41406 3.62314 6.14694 2.89527 4.80767C2.66425 4.2728 2.34031 3.39893 2.70945 2.81635C2.73436 2.65452 2.81132 2.50522 2.92867 2.39104C3.04602 2.27686 3.19738 2.20402 3.35983 2.18355C3.95748 1.65119 5.67257 2.32919 6.27273 2.62048C7.88576 3.25549 9.4222 4.07004 10.853 5.04874C11.5009 5.5359 13.0276 6.76886 13.0276 6.76886H13.4797C15.0165 7.10284 16.7441 6.86177 18.1905 7.29619C20.6259 8.10802 22.95 9.22157 25.1087 10.6109C31.471 14.6667 36.6433 20.3381 40.0976 27.0462C40.6751 28.1486 40.9187 29.1605 41.446 30.3106C42.4505 32.6711 43.706 35.0818 44.7105 37.3769C45.5966 39.6477 46.7426 41.8082 48.1256 43.8154C48.8438 44.8199 51.7291 45.3523 53.0273 45.8796C54.1548 46.2696 55.2612 46.7181 56.342 47.223C57.9767 48.2275 59.6065 49.3851 61.1458 50.4875C61.9117 51.0651 64.3148 52.2654 64.4605 53.2271" fill="#FFD700"/>
<defs>
<linearGradient id="paint0_linear_15_239" x1="16.6854" y1="11.4497" x2="16.6854" y2="16.0627" gradientUnits="userSpaceOnUse">
<stop stop-color="#FFD700"/>
<stop offset="1" stop-color="#FFD700" stop-opacity="0.55"/>
</linearGradient>
</defs>
</svg>
