<svg width="70" height="63" viewBox="0 0 70 63" fill="none" xmlns="http://www.w3.org/2000/svg">
<path d="M35 37.3308C38.4518 37.3308 41.25 34.5326 41.25 31.0808C41.25 27.629 38.4518 24.8308 35 24.8308C31.5482 24.8308 28.75 27.629 28.75 31.0808C28.75 34.5326 31.5482 37.3308 35 37.3308Z" fill="url(#paint0_linear_15_253)"/>
<path d="M35 45.4112C27.4878 45.5929 19.9945 44.5803 12.8 42.4112C9.47655 41.3576 6.37684 39.698 3.6575 37.5162C2.61982 36.7708 1.75568 35.8098 1.12436 34.699C0.493031 33.5883 0.109474 32.3541 0 31.0812C0 26.9487 4.54 22.8987 12.145 20.2487C19.5318 17.9006 27.2498 16.7625 35 16.8787C42.6468 16.7718 50.2614 17.8893 57.555 20.1887C60.7557 21.2091 63.7503 22.7885 66.4 24.8537C67.4199 25.5643 68.2711 26.4905 68.8932 27.5667C69.5154 28.6429 69.8932 29.8427 70 31.0812C70 35.3762 64.925 39.7287 56.75 42.4337C49.6948 44.5321 42.3596 45.5363 35 45.4112ZM35 19.8687C27.5853 19.7696 20.2021 20.8514 13.1275 23.0737C6.1275 25.5162 2.99 28.8562 2.99 31.0737C2.99 33.3937 6.3625 37.0412 13.7675 39.5737C20.6502 41.6383 27.8165 42.5994 35 42.4212C42.041 42.5471 49.0598 41.5944 55.8125 39.5962C63.5 37.0487 67 33.3962 67 31.0812C66.8739 30.2867 66.5844 29.5271 66.1497 28.8502C65.7151 28.1734 65.1449 27.594 64.475 27.1487C62.1044 25.3165 59.4292 23.9168 56.5725 23.0137C49.5951 20.8231 42.3124 19.7614 35 19.8687Z" fill="url(#paint1_linear_15_253)"/>
<path d="M20.8 62.2537C19.6338 62.2804 18.4813 61.9975 17.46 61.4337C13.88 59.3687 12.64 53.4137 14.1425 45.5012C15.7991 37.9289 18.6695 30.6744 22.6425 24.0187C26.3693 17.3414 31.1405 11.3035 36.775 6.13367C39.2579 3.87043 42.1222 2.06503 45.235 0.801173C46.3609 0.273521 47.5891 0 48.8325 0C50.0759 0 51.3041 0.273521 52.43 0.801173C56.1525 2.94617 57.385 9.51617 55.6475 17.9487C53.9397 25.1101 51.1439 31.9673 47.3575 38.2812C43.7618 44.8796 39.1409 50.865 33.6675 56.0137C31.0945 58.3656 28.1083 60.221 24.86 61.4862C23.5596 61.9688 22.1869 62.2283 20.8 62.2537ZM25.2325 25.5037C21.4427 31.877 18.6917 38.8129 17.0825 46.0512C15.7 53.3387 17.0275 57.7212 18.9575 58.8362C20.9575 59.9937 25.8125 58.8962 31.7075 53.7462C36.9326 48.8135 41.3431 43.0842 44.775 36.7712C48.4023 30.735 51.0842 24.179 52.7275 17.3312C54.3625 9.39367 52.95 4.53367 50.945 3.37867C50.1935 3.09074 49.3905 2.96185 48.5867 3.00015C47.7828 3.03844 46.9957 3.2431 46.275 3.60117C43.5042 4.74454 40.9568 6.36775 38.75 8.39617C33.3667 13.3481 28.8092 19.1285 25.25 25.5187L25.2325 25.5037Z" fill="url(#paint2_linear_15_253)"/>
<path d="M49.1926 62.2862C45.805 62.2862 41.5026 60.2362 37.0226 56.3837C31.2893 51.1669 26.4375 45.0572 22.6551 38.2912C18.7319 31.7271 15.8842 24.5776 14.2201 17.1137C13.4983 13.8299 13.3646 10.4442 13.8251 7.11369C13.9315 5.8782 14.3077 4.68112 14.9271 3.60684C15.5466 2.53257 16.3941 1.60727 17.4101 0.896187C21.1276 -1.25631 27.4351 0.956187 33.8726 6.67119C39.224 11.7267 43.7685 17.5729 47.3475 24.0062C51.2683 30.4171 54.1458 37.41 55.8726 44.7237C56.6253 48.128 56.7415 51.6422 56.215 55.0887C56.0898 56.3597 55.6912 57.5886 55.0465 58.6911C54.4018 59.7937 53.5263 60.7437 52.4801 61.4762C51.4755 62.033 50.3408 62.3125 49.1926 62.2862ZM25.2426 36.7862C28.8711 43.2523 33.5058 49.0996 38.9726 54.1087C44.5951 58.9462 49.055 59.9862 50.9725 58.8587C52.9725 57.6962 54.4475 52.9512 52.9276 45.2737C51.2622 38.291 48.5023 31.616 44.75 25.4962C41.3346 19.339 36.9969 13.7408 31.8876 8.89619C25.8276 3.51619 20.9126 2.31369 18.9101 3.47369C18.2859 3.98089 17.7737 4.612 17.4058 5.32715C17.0379 6.04231 16.8223 6.82598 16.7726 7.62869C16.3751 10.5989 16.5045 13.6159 17.1551 16.5412C18.7558 23.679 21.4869 30.5152 25.2451 36.7912L25.2426 36.7862Z" fill="url(#paint3_linear_15_253)"/>
<defs>
<linearGradient id="paint0_linear_15_253" x1="35" y1="24.8308" x2="35" y2="37.3308" gradientUnits="userSpaceOnUse">
<stop stop-color="#FFD700"/>
<stop offset="1" stop-color="#FFD700" stop-opacity="0.55"/>
</linearGradient>
<linearGradient id="paint1_linear_15_253" x1="35" y1="16.8706" x2="35" y2="45.4319" gradientUnits="userSpaceOnUse">
<stop stop-color="#FFD700"/>
<stop offset="1" stop-color="#FFD700" stop-opacity="0.55"/>
</linearGradient>
<linearGradient id="paint2_linear_15_253" x1="34.9695" y1="0" x2="34.9695" y2="62.2554" gradientUnits="userSpaceOnUse">
<stop stop-color="#FFD700"/>
<stop offset="1" stop-color="#FFD700" stop-opacity="0.55"/>
</linearGradient>
<linearGradient id="paint3_linear_15_253" x1="35.048" y1="0.0866699" x2="35.048" y2="62.2879" gradientUnits="userSpaceOnUse">
<stop stop-color="#FFD700"/>
<stop offset="1" stop-color="#FFD700" stop-opacity="0.55"/>
</linearGradient>
</defs>
</svg>
