<svg width="60" height="85" viewBox="0 0 60 85" fill="none" xmlns="http://www.w3.org/2000/svg">
<path d="M7.60313 39.9155C14.7938 42.4429 22.3796 43.6596 30 43.5077C37.6206 43.6586 45.2064 42.4409 52.3969 39.9124C58.0096 37.7233 60 35.2903 60 33.8902V23.1855C58.0377 24.4997 55.9325 25.5866 53.7248 26.4255C46.117 29.1497 38.0798 30.4779 30 30.346C21.9209 30.4754 13.8845 29.1494 6.27522 26.4316C4.06645 25.5926 1.961 24.5035 0 23.1855V33.8751C0 35.3024 1.99639 37.7233 7.60313 39.9155Z" fill="url(#paint0_linear_15_261)"/>
<path d="M7.60313 60.1054C10.1434 61.0741 12.7628 61.8207 15.4321 62.3366C20.232 63.2652 25.1112 63.722 30 63.7007C34.8887 63.723 39.7679 63.2672 44.5679 62.3396C47.2372 61.8236 49.8566 61.0771 52.3969 60.1084C58.0096 57.9193 60 55.4863 60 54.0861V43.8783C58.378 44.8544 56.6731 45.6857 54.9052 46.3625C46.9129 49.1923 38.477 50.5621 30 50.4065C21.5221 50.5572 13.0862 49.1823 5.09485 46.3475C3.32768 45.6689 1.62296 44.8377 0 43.8633V54.0801C0 55.4833 1.99639 57.9073 7.60313 60.1054Z" fill="url(#paint1_linear_15_261)"/>
<path d="M30 84.3124C46.5613 84.3124 60 79.061 60 72.587V64.0444C58.5244 64.9339 56.9785 65.7013 55.3779 66.3389L54.9052 66.5286C46.9145 69.3668 38.4785 70.7447 30 70.5967C21.5212 70.749 13.0845 69.3709 5.09485 66.5286C4.93225 66.4684 4.77567 66.3991 4.6221 66.3389C3.02146 65.7013 1.47561 64.9339 0 64.0444V72.587C0 79.061 13.4387 84.3124 30 84.3124Z" fill="url(#paint2_linear_15_261)"/>
<path d="M30 23.4508C46.5685 23.4508 60 18.2011 60 11.7254C60 5.24963 46.5685 0 30 0C13.4315 0 0 5.24963 0 11.7254C0 18.2011 13.4315 23.4508 30 23.4508Z" fill="url(#paint3_linear_15_261)"/>
<defs>
<linearGradient id="paint0_linear_15_261" x1="30" y1="23.1855" x2="30" y2="43.5204" gradientUnits="userSpaceOnUse">
<stop stop-color="#FFD700"/>
<stop offset="1" stop-color="#FFD700" stop-opacity="0.55"/>
</linearGradient>
<linearGradient id="paint1_linear_15_261" x1="30" y1="43.8633" x2="30" y2="63.7015" gradientUnits="userSpaceOnUse">
<stop stop-color="#FFD700"/>
<stop offset="1" stop-color="#FFD700" stop-opacity="0.55"/>
</linearGradient>
<linearGradient id="paint2_linear_15_261" x1="30" y1="64.0444" x2="30" y2="84.3124" gradientUnits="userSpaceOnUse">
<stop stop-color="#FFD700"/>
<stop offset="1" stop-color="#FFD700" stop-opacity="0.55"/>
</linearGradient>
<linearGradient id="paint3_linear_15_261" x1="30" y1="0" x2="30" y2="23.4508" gradientUnits="userSpaceOnUse">
<stop stop-color="#FFD700"/>
<stop offset="1" stop-color="#FFD700" stop-opacity="0.55"/>
</linearGradient>
</defs>
</svg>
