<svg width="70" height="70" viewBox="0 0 70 70" fill="none" xmlns="http://www.w3.org/2000/svg">
<path d="M66.72 0H3.28C1.46851 0 0 1.46851 0 3.28V66.72C0 68.5315 1.46851 70 3.28 70H66.72C68.5315 70 70 68.5315 70 66.72V3.28C70 1.46851 68.5315 0 66.72 0Z" fill="url(#paint0_linear_15_230)"/>
<path fill-rule="evenodd" clip-rule="evenodd" d="M40.6125 54.3975V62.0675C42.0061 62.7553 43.4913 63.2394 45.0225 63.505C46.792 63.8317 48.5881 63.9924 50.3875 63.985C52.1412 63.9933 53.8909 63.8165 55.6075 63.4575C57.1487 63.1461 58.6192 62.5528 59.945 61.7075C61.1758 60.913 62.1903 59.8255 62.8975 58.5425C64.1641 55.8858 64.3311 52.8367 63.3625 50.0575C62.9537 49.0182 62.3447 48.0694 61.57 47.265C60.7385 46.4097 59.7939 45.672 58.7625 45.0725C57.5751 44.3771 56.3414 43.764 55.07 43.2375C54.07 42.8225 53.17 42.4192 52.37 42.0275C51.6595 41.6873 50.9795 41.2867 50.3375 40.83C49.8347 40.4775 49.398 40.0391 49.0475 39.535C48.7447 39.0773 48.587 38.5388 48.595 37.99C48.5883 37.4849 48.7291 36.9888 49 36.5625C49.2943 36.1163 49.6868 35.7435 50.1475 35.4725C50.7107 35.1409 51.3235 34.902 51.9625 34.765C52.747 34.5907 53.5489 34.5068 54.3525 34.515C55.0284 34.5173 55.7033 34.5658 56.3725 34.66C57.0952 34.7577 57.8103 34.9056 58.5125 35.1025C59.2268 35.3005 59.9253 35.5512 60.6025 35.8525C61.2596 36.1454 61.8881 36.4986 62.48 36.9075V29.75C61.2478 29.2838 59.9699 28.9486 58.6675 28.75C57.0948 28.5212 55.5068 28.4133 53.9175 28.4275C52.1803 28.4181 50.4481 28.6154 48.7575 29.015C47.2294 29.3642 45.7763 29.9849 44.4675 30.8475C43.2517 31.6574 42.2478 32.747 41.54 34.025C40.7899 35.4442 40.4188 37.0329 40.4625 38.6375C40.4071 40.7595 41.106 42.8323 42.435 44.4875C44.0655 46.3227 46.1214 47.7297 48.4225 48.585C49.4725 49.0183 50.4517 49.4425 51.36 49.8575C52.1796 50.2222 52.9673 50.6545 53.715 51.15C54.3181 51.5423 54.8478 52.0373 55.28 52.6125C55.66 53.1342 55.8617 53.7646 55.855 54.41C55.8584 54.8937 55.7343 55.3697 55.495 55.79C55.2291 56.2417 54.8555 56.6205 54.4075 56.8925C53.8469 57.2343 53.2336 57.4809 52.5925 57.6225C51.7574 57.8092 50.9032 57.8973 50.0475 57.885C48.3683 57.8819 46.7024 57.5858 45.125 57.01C43.477 56.4153 41.9488 55.5305 40.6125 54.3975ZM27.7275 35.3025H37.7275V28.985H9.845V35.3025H19.8V63.4375H27.7275V35.3025Z" fill="#494E6B"/>
<defs>
<linearGradient id="paint0_linear_15_230" x1="35" y1="0" x2="35" y2="70" gradientUnits="userSpaceOnUse">
<stop stop-color="#FFD700"/>
<stop offset="1" stop-color="#FFD700" stop-opacity="0.55"/>
</linearGradient>
</defs>
</svg>
